<?xml version="1.0" encoding="UTF-8"?>
<svg id="Layer_2" data-name="Layer 2" xmlns="http://www.w3.org/2000/svg" viewBox="0 0 967.57 640.68">
  <defs>
    <style>
      .cls-1 {
        fill: #ff2a19;
      }
    </style>
  </defs>
  <g id="Layer_1-2" data-name="Layer 1">
    <g>
      <path d="M967.57.02h-70.84v123.89h70.84V.02ZM943.68,54.13l13.14,27.12h-15.89l-11.58-24.95h-5.11v24.95h-14.43V14.24h25.66c12.78,0,21,9.07,21,20.99,0,9.07-4.85,15.97-12.78,18.89M941.84,35.34c0-5.02-3.2-8.13-9.12-8.13h-8.48v16.23h8.48c5.95,0,9.12-3.4,9.12-8.1"/>
      <path class="cls-1" d="M237.2,37.42c-3-4.42-6.44-8.6-10.3-12.41v-.06c-.98-.92-1.96-1.9-2.94-2.77-6.93-6.39-14.97-11.55-23.8-15.42-10.18-4.49-21.28-6.76-33.06-6.76h-94.95c-3.68,0-7.11,1.11-10,3.01-4.97,3.25-8.22,8.85-8.22,15.24v14.31c0,5.96-2.5,11.92-7.41,15.27-2.75,1.88-5.8,2.79-9.33,2.79h-6.38c-7.91,0-14.78,2.64-20.55,7.98C4.29,64.21.92,71.94.18,80.06c-.06.68-.12,1.35-.12,2.03-.06.49-.06.98-.06,1.47v189.91c0,.92,0,1.84.06,2.76v.07c.02,7.16,2.23,14.28,6.78,19.79,6.4,7.73,14.41,11.65,23.95,11.65h6.38c3.51,0,6.55.9,9.28,2.69,4.93,3.24,7.47,9.14,7.47,15.05v14.64c0,6.33,3.25,11.92,8.22,15.18,7.12,2.03,14.48,3.01,22.08,3.01h82.87c11.78,0,22.88-2.28,33.06-6.76,10.12-4.42,19.08-10.57,26.75-18.18,3.8-3.88,7.24-7.99,10.3-12.48,3.07-4.48,5.64-9.22,7.91-14.32,4.42-10.2,6.69-21.38,6.69-33.11v-21c0-10.06-8.13-18.2-18.17-18.2h-25.67c-9.99,0-18.17,8.19-18.17,18.2v23.81c0,10.92-8.92,19.86-19.82,19.86h-88.56c-10.95,0-19.82-8.89-19.82-19.86V80.43c0-5.94,2.38-11.92,7.23-15.34,2.79-1.97,5.96-2.91,9.51-2.91h94.71,0c3.55,0,6.72.96,9.51,2.92,4.85,3.42,7.23,9.4,7.23,15.34h0s0,25.4,0,25.4c0,10.06,8.13,18.2,18.17,18.2h25.67c10.04,0,18.17-8.15,18.17-18.2v-20.99c0-11.74-2.27-22.86-6.69-33.12-2.27-5.04-4.91-9.83-7.91-14.31"/>
      <path class="cls-1" d="M533.12.02h-25.72c-10.03,0-18.17,8.15-18.17,18.2v207.11c0,4.66-1.58,8.41-4.99,11.81-3.4,3.41-7.15,4.99-11.79,4.99h-9.17c-10.04,0-18.18,8.15-18.18,18.21v19.02c0,4.65-1.58,8.39-4.98,11.8-3.4,3.41-7.15,5-11.79,5h-6.37c-4.65,0-8.39-1.59-11.79-5-3.4-3.4-4.98-7.15-4.98-11.8v-19.01c0-10.06-8.14-18.21-18.19-18.21h-9.17c-4.65,0-8.39-1.58-11.79-4.99-3.4-3.4-4.98-7.15-4.98-11.81V18.23C361.05,8.17,352.91.02,342.87.02h-25.21c-10.04,0-18.18,8.15-18.18,18.21v219.73c0,10.06,8.14,18.21,18.18,18.21h12.6c4.64,0,8.39,1.59,11.79,4.99,3.4,3.42,4.99,7.17,4.99,11.82v12.63c0,10.06,8.14,18.21,18.18,18.21h10.88c5.93,0,11.88,2.48,15.21,7.39,1.88,2.77,2.8,5.88,2.8,9.41v19.5c0,10.06,8.14,18.21,18.18,18.21h25.7c10.04,0,18.18-8.15,18.18-18.21v-19.5c0-4.65,1.58-8.4,4.98-11.8,3.4-3.41,7.15-5,11.79-5h15.2c9.61,0,15.58-5.79,15.58-15.12v-14.39c0-5.04,1.65-10.13,5.26-13.66,3.12-3.04,6.64-4.47,11.03-4.47h13.09c10.04,0,18.18-8.15,18.18-18.21V18.22c0-10.05-8.14-18.2-18.17-18.2"/>
      <path class="cls-1" d="M806.13,124.05h25.67c10.04,0,18.17-8.15,18.17-18.2v-20.99c0-11.74-2.27-22.86-6.69-33.12-2.27-5.04-4.91-9.83-7.91-14.31-3.01-4.42-6.44-8.6-10.3-12.41v-.06c-.98-.92-1.96-1.9-2.95-2.76-6.93-6.39-14.97-11.55-23.8-15.42C788.15,2.28,777.04,0,765.27,0h-94.95c-3.68,0-7.12,1.11-10,3.01-4.97,3.25-8.22,8.84-8.22,15.23v14.32c0,5.96-2.5,11.91-7.41,15.27-2.75,1.88-5.8,2.79-9.33,2.79h-6.38c-7.91,0-14.78,2.64-20.55,7.98-5.95,5.59-9.32,13.33-10.06,21.45-.06.67-.12,1.35-.12,2.03-.06.49-.06.98-.06,1.47v189.91c0,.92,0,1.84.06,2.76v.08c.03,7.16,2.23,14.28,6.79,19.79,6.39,7.73,14.41,11.65,23.94,11.65h6.38c3.51,0,6.54.9,9.28,2.69,4.94,3.24,7.47,9.14,7.47,15.05v14.64c0,6.33,3.25,11.92,8.22,15.17,7.12,2.03,14.48,3.01,22.08,3.01h82.87c11.78,0,22.88-2.28,33.06-6.76,10.12-4.43,19.08-10.57,26.75-18.18,3.8-3.88,7.24-7.99,10.3-12.48,3.07-4.48,5.64-9.21,7.91-14.31,4.42-10.2,6.69-21.38,6.69-33.11v-21c0-10.06-8.14-18.2-18.17-18.2h-25.67c-9.99,0-18.17,8.19-18.17,18.2v23.81c0,10.92-8.92,19.85-19.82,19.85h-88.55c-10.95,0-19.82-8.89-19.82-19.85V80.43c0-5.94,2.38-11.92,7.23-15.34,2.79-1.96,5.96-2.91,9.51-2.91h94.71,0c3.55,0,6.72.96,9.51,2.92,4.85,3.42,7.23,9.4,7.23,15.34h0s0,25.4,0,25.4c0,10.06,8.13,18.2,18.17,18.2"/>
      <path class="cls-1" d="M777.56,618.91h47.27v-10.89h-19.45v-19.01c0-3.86,1.2-7.02,3.59-9.5,2.39-2.48,5.69-3.71,9.89-3.71h11.52v-13.06h-6.09c-2.83,0-5.25.44-7.28,1.32-2.03.88-3.75,2.03-5.16,3.45-1.41,1.43-2.57,3.07-3.48,4.94-.91,1.86-1.61,3.78-2.12,5.75h-.87v-15.46h-27.82v10.89h13.91v34.4h-13.91v10.89ZM730.62,605.9c-2.32-2.43-3.48-6-3.48-10.72v-8.71c0-4.72,1.16-8.29,3.48-10.72,2.32-2.43,5.47-3.65,9.46-3.65s7.13,1.22,9.45,3.65c2.32,2.43,3.48,6.01,3.48,10.72v8.71c0,4.72-1.16,8.29-3.48,10.72-2.32,2.43-5.47,3.65-9.45,3.65s-7.14-1.21-9.46-3.65M751.48,618.15c3.41-1.38,6.29-3.34,8.64-5.88,2.35-2.54,4.16-5.62,5.43-9.25,1.27-3.63,1.9-7.69,1.9-12.19s-.63-8.56-1.9-12.19c-1.27-3.63-3.08-6.71-5.43-9.25-2.36-2.54-5.24-4.5-8.64-5.88-3.41-1.38-7.21-2.07-11.41-2.07s-8.1.69-11.47,2.07c-3.37,1.38-6.23,3.34-8.59,5.88-2.36,2.54-4.17,5.62-5.43,9.25-1.27,3.63-1.9,7.69-1.9,12.19s.63,8.56,1.9,12.19c1.27,3.63,3.08,6.71,5.43,9.25,2.35,2.54,5.22,4.5,8.59,5.88,3.37,1.38,7.19,2.07,11.47,2.07s8-.69,11.41-2.07M668.29,605.41c-2.21-2.47-3.31-5.84-3.31-10.12v-8.93c0-4.28,1.1-7.66,3.31-10.12,2.21-2.47,5.34-3.7,9.4-3.7,1.59,0,3.1.2,4.51.6,1.41.4,2.64.98,3.7,1.74,1.05.76,1.88,1.74,2.5,2.94.62,1.2.92,2.6.92,4.19v17.63c0,1.6-.31,2.99-.92,4.19-.62,1.2-1.45,2.18-2.5,2.94-1.05.76-2.28,1.34-3.7,1.74-1.41.4-2.92.6-4.51.6-4.06,0-7.19-1.23-9.4-3.7M689.32,618.91h13.91v-80.55h-13.91v34.29h-.76c-1.52-3.41-3.6-6.13-6.25-8.16-2.65-2.03-6.14-3.05-10.49-3.05-6.45,0-11.63,2.43-15.54,7.29-3.91,4.86-5.87,12.23-5.87,22.1,0,4.94.51,9.25,1.52,12.95,1.01,3.7,2.46,6.77,4.35,9.2,1.88,2.43,4.15,4.25,6.79,5.44,2.64,1.2,5.56,1.8,8.75,1.8,4.35,0,7.84-1.02,10.49-3.05,2.64-2.03,4.73-4.75,6.25-8.16h.76v9.91ZM605.97,608.89c-1.67-1.16-2.5-2.87-2.5-5.12v-2.18c0-4.79,3.8-7.19,11.41-7.19h9.56v7.51c0,2.69-1.11,4.81-3.31,6.37-2.21,1.56-4.98,2.34-8.31,2.34-2.9,0-5.18-.58-6.85-1.74M644.98,618.91v-10.45h-6.63v-26.45c0-6.82-2.08-11.96-6.25-15.4-4.17-3.45-9.94-5.17-17.33-5.17-6.16,0-11.18,1.07-15.05,3.21-3.88,2.14-6.68,4.77-8.42,7.89l7.93,6.75c1.52-2.18,3.37-3.95,5.54-5.33,2.17-1.38,5.03-2.07,8.59-2.07,3.91,0,6.74.91,8.48,2.72,1.74,1.82,2.61,4.5,2.61,8.06v3.7h-9.89c-16.59,0-24.89,5.66-24.89,16.98,0,5.3,1.67,9.43,5,12.41,3.33,2.98,7.82,4.46,13.48,4.46,4.35,0,8.01-.96,10.98-2.89,2.97-1.92,4.96-4.63,5.98-8.11h.54c.36,3.05,1.47,5.43,3.31,7.13,1.85,1.71,4.47,2.56,7.88,2.56h8.15ZM579.12,618.91v-10.89h-22.82v-34.4h22.82v-10.89h-22.82v-19.81h-12.93v13.61c0,2.32-.47,3.94-1.41,4.84-.94.91-2.54,1.36-4.78,1.36h-11.08v10.89h16.3v30.01c0,4.51,1.27,8.18,3.8,11.02,2.54,2.84,6.48,4.26,11.85,4.26h21.08ZM502.84,618.91h13.91v-56.17h-13.91v37.64c0,1.53-.31,2.84-.92,3.93-.62,1.09-1.45,2.02-2.5,2.78-1.05.77-2.25,1.33-3.59,1.69-1.34.36-2.7.54-4.08.54-7.03,0-10.54-4.07-10.54-12.22v-34.37h-13.91v36.25c0,6.82,1.72,12.06,5.16,15.73,3.44,3.66,7.92,5.5,13.42,5.5,4.56,0,8.13-1.11,10.7-3.32,2.57-2.21,4.47-4.84,5.71-7.89h.54v9.91ZM422.58,606.77c-2.28-1.56-3.42-3.94-3.42-7.13v-17.63c0-3.19,1.14-5.57,3.42-7.13,2.28-1.56,5.02-2.34,8.2-2.34,4.06,0,7.19,1.24,9.4,3.7,2.21,2.47,3.31,5.84,3.31,10.12v8.93c0,4.28-1.11,7.66-3.31,10.12-2.21,2.47-5.34,3.7-9.4,3.7-3.19,0-5.92-.78-8.2-2.34M405.25,640.68h13.91v-31.68h.76c1.52,3.41,3.6,6.13,6.25,8.16,2.64,2.03,6.14,3.05,10.49,3.05,3.19,0,6.1-.6,8.75-1.8,2.64-1.2,4.91-3.01,6.79-5.44,1.88-2.43,3.33-5.5,4.35-9.2,1.01-3.7,1.52-8.02,1.52-12.95s-.51-9.25-1.52-12.95c-1.01-3.7-2.46-6.77-4.35-9.2-1.88-2.43-4.15-4.25-6.79-5.44-2.65-1.2-5.56-1.8-8.75-1.8-4.35,0-7.84,1.02-10.49,3.05-2.65,2.03-4.73,4.75-6.25,8.16h-.76v-9.91h-13.91v77.94ZM351.34,618.91v-40.39c0-2.25.56-3.92,1.68-5.01,1.12-1.09,2.55-1.63,4.29-1.63s3.15.65,4.02,1.96c.87,1.31,1.3,3.59,1.3,6.86v38.21h11.52v-40.39c0-2.25.56-3.92,1.68-5.01,1.12-1.09,2.52-1.63,4.18-1.63,1.81,0,3.17.65,4.08,1.96.91,1.31,1.36,3.59,1.36,6.86v38.21h11.41v-39.84c0-5.81-.91-10.19-2.72-13.17-1.81-2.98-4.78-4.46-8.91-4.46-3.41,0-6.03.93-7.88,2.78-1.85,1.85-3.24,4.05-4.18,6.59h-.54c-.51-2.98-1.59-5.28-3.26-6.91-1.67-1.63-3.91-2.45-6.74-2.45-2.97,0-5.27.89-6.9,2.67-1.63,1.78-2.88,3.9-3.75,6.37h-.65v-7.73h-11.52v56.17h11.52ZM297.01,605.9c-2.32-2.43-3.48-6-3.48-10.72v-8.71c0-4.72,1.16-8.29,3.48-10.72,2.32-2.43,5.47-3.65,9.46-3.65s7.14,1.22,9.46,3.65c2.32,2.43,3.48,6.01,3.48,10.72v8.71c0,4.72-1.16,8.29-3.48,10.72-2.32,2.43-5.47,3.65-9.46,3.65s-7.14-1.21-9.46-3.65M317.87,618.15c3.4-1.38,6.28-3.34,8.64-5.88,2.35-2.54,4.17-5.62,5.43-9.25,1.27-3.63,1.9-7.69,1.9-12.19s-.64-8.56-1.9-12.19c-1.27-3.63-3.08-6.71-5.43-9.25-2.36-2.54-5.24-4.5-8.64-5.88-3.41-1.38-7.21-2.07-11.41-2.07s-8.1.69-11.47,2.07c-3.37,1.38-6.23,3.34-8.59,5.88-2.36,2.54-4.17,5.62-5.43,9.25-1.27,3.63-1.9,7.69-1.9,12.19s.63,8.56,1.9,12.19c1.27,3.63,3.08,6.71,5.43,9.25,2.35,2.54,5.22,4.5,8.59,5.88,3.37,1.38,7.19,2.07,11.47,2.07s8-.69,11.41-2.07M256.42,618.71c2.86-1.01,5.34-2.39,7.44-4.15,2.1-1.76,3.84-3.89,5.22-6.38,1.37-2.49,2.46-5.23,3.26-8.2l-13.04-3.7c-.51,1.74-1.09,3.37-1.74,4.9-.65,1.52-1.47,2.85-2.44,3.97-.98,1.13-2.19,2-3.64,2.61-1.45.62-3.19.93-5.22.93-4.93,0-8.46-1.89-10.6-5.68-2.14-3.79-3.21-8.96-3.21-15.52v-13.11c0-6.56,1.07-11.73,3.21-15.52,2.13-3.79,5.67-5.68,10.6-5.68,2.03,0,3.77.31,5.22.93,1.45.62,2.66,1.49,3.64,2.61.98,1.13,1.79,2.45,2.44,3.97.65,1.52,1.23,3.16,1.74,4.9l13.04-3.7c-.8-2.98-1.88-5.71-3.26-8.2-1.38-2.49-3.12-4.62-5.22-6.38-2.1-1.76-4.58-3.15-7.44-4.15-2.86-1.01-6.18-1.51-9.94-1.51-9.93,0-17.26,3.43-22.01,10.29-4.75,6.86-7.12,16.53-7.12,29.01s2.37,22.24,7.12,29.06c4.74,6.82,12.08,10.23,22.01,10.23,3.77,0,7.08-.5,9.94-1.51M127.69,618.91h47.27v-10.89h-19.45v-19.01c0-3.86,1.2-7.02,3.59-9.5s5.69-3.71,9.89-3.71h11.52v-13.06h-6.09c-2.83,0-5.25.44-7.28,1.32-2.03.88-3.75,2.03-5.16,3.45-1.41,1.43-2.57,3.07-3.48,4.94-.91,1.86-1.61,3.78-2.12,5.75h-.87v-15.46h-27.82v10.89h13.91v34.4h-13.91v10.89ZM101.78,575.29c2.21,2.41,3.31,5.67,3.31,9.76v.99h-25.43v-.77c0-4.1,1.2-7.39,3.59-9.87,2.39-2.49,5.54-3.73,9.46-3.73s6.86,1.21,9.07,3.62M108.4,617.08c3.87-2.09,6.83-4.62,8.86-7.57l-7.93-7.9c-1.67,2.32-3.75,4.19-6.25,5.6-2.5,1.42-5.49,2.12-8.96,2.12-4.56,0-8.11-1.25-10.65-3.76-2.54-2.5-3.8-5.79-3.8-9.85v-1.41h39.34v-4.59c0-4.22-.62-8.08-1.85-11.57-1.23-3.5-2.99-6.48-5.27-8.96-2.28-2.47-5.05-4.39-8.31-5.73-3.26-1.35-6.92-2.02-10.98-2.02s-7.84.69-11.14,2.07c-3.3,1.38-6.1,3.34-8.42,5.88-2.32,2.54-4.11,5.62-5.38,9.25-1.27,3.63-1.9,7.73-1.9,12.3s.61,8.54,1.85,12.14c1.23,3.59,3.02,6.66,5.38,9.2,2.35,2.54,5.27,4.5,8.75,5.88,3.48,1.38,7.46,2.07,11.95,2.07,5.94,0,10.85-1.05,14.73-3.14M24.83,606.77c-2.28-1.56-3.42-3.94-3.42-7.13v-17.63c0-3.19,1.14-5.57,3.42-7.13,2.28-1.56,5.02-2.34,8.2-2.34,4.06,0,7.19,1.24,9.4,3.7,2.21,2.47,3.31,5.84,3.31,10.12v8.93c0,4.28-1.11,7.66-3.31,10.12-2.21,2.47-5.34,3.7-9.4,3.7-3.19,0-5.92-.78-8.2-2.34M7.5,640.68h13.91v-31.68h.76c1.52,3.41,3.6,6.13,6.25,8.16,2.64,2.03,6.14,3.05,10.49,3.05,3.19,0,6.1-.6,8.75-1.8,2.64-1.2,4.91-3.01,6.79-5.44,1.88-2.43,3.33-5.5,4.35-9.2,1.01-3.7,1.52-8.02,1.52-12.95s-.51-9.25-1.52-12.95c-1.01-3.7-2.46-6.77-4.35-9.2-1.88-2.43-4.15-4.25-6.79-5.44-2.65-1.2-5.56-1.8-8.75-1.8-4.35,0-7.84,1.02-10.49,3.05-2.65,2.03-4.73,4.75-6.25,8.16h-.76v-9.91H7.5v77.94Z"/>
      <path class="cls-1" d="M800.17,490.35c-2.32-2.43-3.48-6-3.48-10.72v-8.71c0-4.72,1.16-8.29,3.48-10.72,2.32-2.43,5.47-3.65,9.46-3.65s7.14,1.22,9.45,3.65c2.32,2.43,3.48,6.01,3.48,10.72v8.71c0,4.72-1.16,8.29-3.48,10.72-2.32,2.43-5.47,3.65-9.45,3.65s-7.14-1.21-9.46-3.65M821.03,502.59c3.4-1.38,6.28-3.34,8.64-5.88,2.35-2.54,4.16-5.62,5.43-9.25,1.27-3.63,1.9-7.69,1.9-12.19s-.64-8.56-1.9-12.19c-1.27-3.63-3.08-6.71-5.43-9.25-2.36-2.54-5.24-4.5-8.64-5.88-3.41-1.38-7.21-2.07-11.41-2.07s-8.1.69-11.47,2.07c-3.37,1.38-6.23,3.34-8.59,5.88-2.36,2.54-4.17,5.62-5.43,9.25-1.27,3.63-1.9,7.69-1.9,12.19s.63,8.56,1.9,12.19c1.27,3.63,3.08,6.71,5.43,9.25,2.35,2.54,5.22,4.5,8.59,5.88,3.37,1.38,7.19,2.07,11.47,2.07s8-.69,11.41-2.07M824.73,422.26l-11.74-5.88-10.33,20.36,8.37,4.03,13.69-18.5ZM727.9,503.36h49.55v-10.89h-17.17v-45.28h-32.38v10.89h18.47v34.4h-18.47v10.89ZM760.23,436.41c1.34-1.38,2.01-3.05,2.01-5.01v-2.61c0-1.96-.67-3.63-2.01-5.01-1.34-1.38-3.64-2.07-6.9-2.07s-5.56.69-6.9,2.07c-1.34,1.38-2.01,3.05-2.01,5.01v2.61c0,1.96.67,3.63,2.01,5.01,1.34,1.38,3.64,2.07,6.9,2.07s5.56-.69,6.9-2.07M710.67,499.71c4.46-3.3,6.68-7.85,6.68-13.66,0-2.76-.51-5.08-1.52-6.97-1.02-1.89-2.37-3.45-4.08-4.68-1.7-1.23-3.66-2.19-5.87-2.88-2.21-.69-4.51-1.22-6.9-1.58l-8.91-1.41c-2.32-.36-4.2-.93-5.65-1.69-1.45-.76-2.17-2.16-2.17-4.19,0-4.42,3.55-6.64,10.65-6.64,4.06,0,7.41.67,10.05,2.01,2.64,1.34,4.76,2.88,6.36,4.63l7.28-8.06c-2.46-2.76-5.6-4.9-9.4-6.42-3.8-1.52-8.42-2.29-13.86-2.29-7.68,0-13.71,1.56-18.09,4.68-4.38,3.12-6.57,7.62-6.57,13.5,0,2.76.51,5.1,1.52,7.02,1.01,1.92,2.37,3.5,4.08,4.73,1.7,1.24,3.66,2.2,5.87,2.89,2.21.69,4.47,1.22,6.79,1.58l9.02,1.42c2.32.36,4.18.91,5.6,1.63,1.41.72,2.12,2.11,2.12,4.14,0,2.39-1.05,4.17-3.15,5.33-2.1,1.16-4.89,1.74-8.37,1.74-3.99,0-7.48-.69-10.49-2.07-3.01-1.38-5.67-3.34-7.99-5.88l-8.15,7.4c2.53,3.27,6.05,5.86,10.54,7.78,4.49,1.92,9.82,2.88,15.98,2.88,7.97,0,14.18-1.65,18.64-4.95M612.7,503.36h49.55v-10.89h-17.17v-45.28h-32.38v10.89h18.47v34.4h-18.47v10.89ZM645.03,436.41c1.34-1.38,2.01-3.05,2.01-5.01v-2.61c0-1.96-.67-3.63-2.01-5.01-1.34-1.38-3.64-2.07-6.9-2.07s-5.56.69-6.9,2.07c-1.34,1.38-2.01,3.05-2.01,5.01v2.61c0,1.96.67,3.63,2.01,5.01,1.34,1.38,3.64,2.07,6.9,2.07s5.56-.69,6.9-2.07M584.88,503.36l20.76-75.98h-14.89l-9.56,38.43-5.65,23.95h-.76l-5.54-23.95-9.46-38.43h-15.65l20.76,75.98h20ZM491.91,459.73c2.21,2.41,3.31,5.67,3.31,9.76v.99h-25.43v-.77c0-4.1,1.2-7.38,3.59-9.87,2.39-2.49,5.54-3.73,9.46-3.73s6.86,1.21,9.07,3.62M498.54,501.53c3.87-2.09,6.83-4.62,8.86-7.58l-7.93-7.9c-1.67,2.32-3.75,4.19-6.25,5.61-2.5,1.42-5.49,2.12-8.96,2.12-4.56,0-8.11-1.25-10.65-3.76-2.54-2.5-3.8-5.79-3.8-9.85v-1.42h39.34v-4.59c0-4.22-.62-8.08-1.85-11.58-1.23-3.5-2.99-6.48-5.27-8.96-2.28-2.47-5.05-4.39-8.31-5.73-3.26-1.35-6.92-2.02-10.98-2.02s-7.84.69-11.14,2.07c-3.3,1.38-6.1,3.34-8.42,5.88-2.32,2.54-4.11,5.62-5.38,9.25-1.27,3.63-1.9,7.73-1.9,12.3s.61,8.55,1.85,12.14c1.23,3.59,3.02,6.66,5.38,9.2,2.35,2.54,5.27,4.5,8.75,5.88,3.48,1.38,7.46,2.07,11.95,2.07,5.94,0,10.85-1.05,14.73-3.14M412.91,489.86c-2.21-2.47-3.31-5.84-3.31-10.12v-8.93c0-4.28,1.1-7.66,3.31-10.12,2.21-2.47,5.34-3.7,9.4-3.7,1.59,0,3.1.2,4.51.6,1.41.4,2.64.98,3.7,1.74,1.05.76,1.88,1.74,2.5,2.94.62,1.2.92,2.6.92,4.19v17.63c0,1.6-.31,2.99-.92,4.19-.62,1.2-1.45,2.18-2.5,2.94-1.05.76-2.28,1.34-3.7,1.74-1.41.4-2.92.6-4.51.6-4.06,0-7.19-1.23-9.4-3.7M433.94,503.36h13.91v-80.55h-13.91v34.29h-.76c-1.52-3.41-3.6-6.13-6.25-8.16-2.65-2.03-6.14-3.05-10.49-3.05-6.45,0-11.63,2.43-15.54,7.29-3.91,4.86-5.87,12.23-5.87,22.1,0,4.94.51,9.25,1.52,12.95,1.01,3.7,2.46,6.77,4.35,9.2,1.88,2.43,4.15,4.24,6.79,5.44,2.64,1.2,5.56,1.8,8.75,1.8,4.35,0,7.84-1.02,10.49-3.05,2.64-2.03,4.73-4.75,6.25-8.16h.76v9.9ZM339.77,459.73c2.21,2.41,3.31,5.67,3.31,9.76v.99h-25.43v-.77c0-4.1,1.2-7.38,3.59-9.87,2.39-2.49,5.54-3.73,9.45-3.73s6.86,1.21,9.07,3.62M346.4,501.53c3.87-2.09,6.83-4.62,8.86-7.58l-7.93-7.9c-1.67,2.32-3.75,4.19-6.25,5.61-2.5,1.42-5.49,2.12-8.97,2.12-4.56,0-8.11-1.25-10.65-3.76-2.54-2.5-3.8-5.79-3.8-9.85v-1.42h39.34v-4.59c0-4.22-.62-8.08-1.85-11.58-1.23-3.5-2.99-6.48-5.27-8.96-2.28-2.47-5.05-4.39-8.31-5.73-3.26-1.35-6.92-2.02-10.98-2.02s-7.84.69-11.14,2.07c-3.3,1.38-6.1,3.34-8.42,5.88-2.32,2.54-4.11,5.62-5.38,9.25-1.27,3.63-1.9,7.73-1.9,12.3s.62,8.55,1.85,12.14c1.23,3.59,3.02,6.66,5.38,9.2,2.35,2.54,5.27,4.5,8.75,5.88,3.48,1.38,7.46,2.07,11.96,2.07,5.94,0,10.85-1.05,14.72-3.14M246.15,503.36h47.27v-10.89h-19.45v-19c0-3.86,1.2-7.02,3.59-9.5,2.39-2.48,5.69-3.72,9.89-3.72h11.52v-13.06h-6.09c-2.82,0-5.25.44-7.28,1.32-2.03.88-3.75,2.03-5.16,3.45-1.41,1.43-2.57,3.07-3.48,4.93-.91,1.86-1.61,3.78-2.12,5.75h-.87v-15.46h-27.82v10.89h13.91v34.4h-13.91v10.89ZM235.72,503.36v-10.89h-22.82v-34.4h22.82v-10.89h-22.82v-19.81h-12.93v13.61c0,2.32-.47,3.94-1.41,4.84-.94.91-2.54,1.36-4.78,1.36h-11.08v10.89h16.3v30.01c0,4.51,1.27,8.18,3.8,11.02,2.54,2.84,6.48,4.25,11.85,4.25h21.08ZM141.6,503.36v-37.64c0-1.53.31-2.84.92-3.93.61-1.09,1.45-2.02,2.5-2.78,1.05-.76,2.23-1.33,3.53-1.69,1.3-.36,2.68-.55,4.13-.55,7.03,0,10.54,4.07,10.54,12.22v34.37h13.91v-36.25c0-6.82-1.72-12.06-5.16-15.73-3.44-3.66-7.92-5.5-13.42-5.5-4.56,0-8.13,1.11-10.7,3.32-2.57,2.21-4.47,4.84-5.71,7.89h-.54v-9.91h-13.91v56.17h13.91ZM101.78,459.73c2.21,2.41,3.31,5.67,3.31,9.76v.99h-25.43v-.77c0-4.1,1.2-7.38,3.59-9.87,2.39-2.49,5.54-3.73,9.46-3.73s6.86,1.21,9.07,3.62M108.4,501.53c3.88-2.09,6.83-4.62,8.86-7.58l-7.93-7.9c-1.67,2.32-3.75,4.19-6.25,5.61-2.5,1.42-5.49,2.12-8.97,2.12-4.56,0-8.11-1.25-10.65-3.76-2.54-2.5-3.8-5.79-3.8-9.85v-1.42h39.34v-4.59c0-4.22-.62-8.08-1.85-11.58-1.23-3.5-2.99-6.48-5.27-8.96-2.28-2.47-5.05-4.39-8.31-5.73-3.26-1.35-6.92-2.02-10.98-2.02s-7.84.69-11.14,2.07c-3.3,1.38-6.1,3.34-8.42,5.88-2.32,2.54-4.11,5.62-5.38,9.25-1.27,3.63-1.9,7.73-1.9,12.3s.62,8.55,1.85,12.14c1.23,3.59,3.02,6.66,5.38,9.2,2.35,2.54,5.27,4.5,8.75,5.88,3.48,1.38,7.46,2.07,11.96,2.07,5.94,0,10.85-1.05,14.72-3.14M44.5,503.15c2.86-1.01,5.34-2.39,7.44-4.15,2.1-1.76,3.84-3.89,5.22-6.38,1.38-2.49,2.46-5.23,3.26-8.2l-13.04-3.7c-.51,1.74-1.09,3.37-1.74,4.9-.65,1.52-1.47,2.85-2.44,3.97-.98,1.13-2.19,2-3.64,2.61-1.45.62-3.19.93-5.22.93-4.93,0-8.46-1.89-10.6-5.68-2.14-3.79-3.21-8.96-3.21-15.52v-13.11c0-6.56,1.07-11.73,3.21-15.52,2.14-3.79,5.67-5.68,10.6-5.68,2.03,0,3.77.31,5.22.93,1.45.62,2.66,1.49,3.64,2.61.98,1.13,1.79,2.45,2.44,3.97.65,1.52,1.23,3.16,1.74,4.9l13.04-3.7c-.8-2.97-1.88-5.71-3.26-8.2-1.38-2.49-3.12-4.62-5.22-6.38-2.1-1.76-4.58-3.14-7.44-4.15-2.86-1.01-6.18-1.51-9.94-1.51-9.93,0-17.26,3.43-22.01,10.29-4.75,6.86-7.12,16.53-7.12,29.01s2.37,22.24,7.12,29.06c4.74,6.82,12.08,10.23,22.01,10.23,3.77,0,7.08-.5,9.94-1.51"/>
    </g>
  </g>
</svg>