<?xml version="1.0" encoding="UTF-8"?>
<svg id="Layer_2" data-name="Layer 2" xmlns="http://www.w3.org/2000/svg" viewBox="0 0 1057.47 678.57">
  <defs>
    <style>
      .cls-1 {
        fill: #fff;
      }
    </style>
  </defs>
  <g id="Layer_1-2" data-name="Layer 1">
    <path class="cls-1" d="M814.68,677.06h54.82v-12.6h-22.56v-22c0-4.47,1.39-8.13,4.16-11,2.77-2.87,6.59-4.3,11.47-4.3h13.36v-15.12h-7.06c-3.28,0-6.09.51-8.44,1.53-2.35,1.02-4.35,2.35-5.99,4-1.64,1.65-2.98,3.55-4.03,5.71-1.05,2.16-1.87,4.38-2.46,6.66h-1.01v-17.89h-32.26v12.6h16.13v39.82h-16.13v12.6ZM784.62,626.56c2.56,2.79,3.84,6.56,3.84,11.3v1.14h-29.49v-.89c0-4.74,1.39-8.55,4.16-11.43,2.77-2.88,6.43-4.32,10.96-4.32s7.96,1.4,10.52,4.19M792.31,674.94c4.49-2.42,7.92-5.34,10.27-8.77l-9.2-9.15c-1.93,2.69-4.35,4.85-7.25,6.49-2.9,1.64-6.37,2.46-10.4,2.46-5.29,0-9.41-1.45-12.35-4.35-2.94-2.9-4.41-6.7-4.41-11.4v-1.64h45.62v-5.31c0-4.89-.71-9.35-2.14-13.4-1.43-4.05-3.47-7.5-6.11-10.37-2.65-2.86-5.86-5.08-9.64-6.64-3.78-1.56-8.02-2.34-12.73-2.34s-9.09.8-12.92,2.39c-3.82,1.6-7.08,3.87-9.77,6.8-2.69,2.94-4.77,6.51-6.24,10.71-1.47,4.2-2.21,8.95-2.21,14.24s.71,9.89,2.14,14.05c1.43,4.16,3.51,7.71,6.24,10.65,2.73,2.94,6.11,5.21,10.15,6.8,4.03,1.59,8.65,2.39,13.86,2.39,6.89,0,12.58-1.21,17.08-3.63M733.27,677.06v-12.6h-26.46v-39.82h26.46v-12.6h-26.46v-22.93h-15v15.75c0,2.69-.55,4.56-1.64,5.61-1.09,1.05-2.94,1.57-5.54,1.57h-12.85v12.6h18.9v34.74c0,5.22,1.47,9.47,4.41,12.76,2.94,3.28,7.52,4.93,13.74,4.93h24.45ZM622.88,677.06v-43.58c0-1.77.36-3.28,1.07-4.55.71-1.26,1.68-2.33,2.9-3.22,1.22-.88,2.58-1.54,4.1-1.96,1.51-.42,3.11-.63,4.79-.63,8.15,0,12.22,4.72,12.22,14.15v39.79h16.13v-41.96c0-7.89-2-13.96-5.99-18.21-3.99-4.24-9.18-6.36-15.56-6.36-5.29,0-9.43,1.28-12.41,3.84-2.98,2.56-5.19,5.61-6.62,9.14h-.63v-11.47h-16.13v65.02h16.13ZM576.7,626.56c2.56,2.79,3.84,6.56,3.84,11.3v1.14h-29.49v-.89c0-4.74,1.39-8.55,4.16-11.43,2.77-2.88,6.43-4.32,10.96-4.32s7.96,1.4,10.52,4.19M584.39,674.94c4.49-2.42,7.92-5.34,10.27-8.77l-9.2-9.15c-1.93,2.69-4.35,4.85-7.25,6.49-2.9,1.64-6.36,2.46-10.4,2.46-5.29,0-9.41-1.45-12.35-4.35-2.94-2.9-4.41-6.7-4.41-11.4v-1.64h45.62v-5.31c0-4.89-.72-9.35-2.14-13.4-1.43-4.05-3.47-7.5-6.11-10.37-2.65-2.86-5.86-5.08-9.64-6.64-3.78-1.56-8.02-2.34-12.73-2.34s-9.09.8-12.92,2.39c-3.82,1.6-7.08,3.87-9.77,6.8-2.69,2.94-4.77,6.51-6.24,10.71-1.47,4.2-2.21,8.95-2.21,14.24s.71,9.89,2.14,14.05c1.43,4.16,3.51,7.71,6.24,10.65,2.73,2.94,6.11,5.21,10.14,6.8,4.03,1.59,8.65,2.39,13.86,2.39,6.89,0,12.58-1.21,17.08-3.63M510.29,676.82c3.32-1.17,6.2-2.77,8.63-4.81,2.44-2.04,4.45-4.5,6.05-7.39,1.59-2.89,2.85-6.05,3.78-9.5l-15.12-4.28c-.59,2.02-1.26,3.91-2.02,5.67-.76,1.76-1.7,3.3-2.83,4.6-1.14,1.3-2.54,2.31-4.22,3.02-1.68.72-3.7,1.07-6.05,1.07-5.71,0-9.81-2.19-12.29-6.58-2.48-4.39-3.72-10.37-3.72-17.96v-15.18c0-7.59,1.24-13.58,3.72-17.96,2.48-4.39,6.57-6.58,12.29-6.58,2.35,0,4.37.36,6.05,1.07,1.68.72,3.09,1.72,4.22,3.02,1.13,1.3,2.08,2.83,2.83,4.6.76,1.76,1.43,3.65,2.02,5.67l15.12-4.28c-.93-3.44-2.19-6.61-3.78-9.5-1.6-2.89-3.61-5.35-6.05-7.39-2.44-2.04-5.31-3.64-8.63-4.81-3.32-1.17-7.16-1.75-11.53-1.75-11.51,0-20.02,3.97-25.52,11.91-5.5,7.94-8.25,19.13-8.25,33.58s2.75,25.75,8.25,33.65c5.5,7.9,14.01,11.85,25.52,11.85,4.37,0,8.21-.58,11.53-1.75M369.6,677.06v-43.58c0-1.77.36-3.28,1.07-4.55.71-1.26,1.68-2.33,2.9-3.22,1.22-.88,2.58-1.54,4.1-1.96,1.51-.42,3.11-.63,4.79-.63,8.15,0,12.22,4.72,12.22,14.15v39.79h16.13v-41.96c0-7.89-2-13.96-5.99-18.21-3.99-4.24-9.18-6.36-15.56-6.36-5.29,0-9.43,1.28-12.41,3.84-2.98,2.56-5.19,5.61-6.62,9.14h-.63v-11.47h-16.13v65.02h16.13ZM301.55,662c-2.69-2.81-4.03-6.95-4.03-12.41v-10.08c0-5.46,1.34-9.6,4.03-12.41,2.69-2.81,6.34-4.22,10.96-4.22s8.27,1.41,10.96,4.22c2.69,2.82,4.03,6.95,4.03,12.41v10.08c0,5.46-1.34,9.6-4.03,12.41-2.69,2.82-6.34,4.22-10.96,4.22s-8.28-1.4-10.96-4.22M325.74,676.18c3.95-1.59,7.29-3.86,10.02-6.8,2.73-2.94,4.83-6.51,6.3-10.71,1.47-4.2,2.21-8.9,2.21-14.11s-.74-9.91-2.21-14.11c-1.47-4.2-3.57-7.77-6.3-10.71-2.73-2.94-6.07-5.21-10.02-6.8-3.95-1.59-8.36-2.39-13.23-2.39s-9.39.8-13.29,2.39c-3.91,1.6-7.23,3.87-9.95,6.8-2.73,2.94-4.83,6.51-6.3,10.71-1.47,4.2-2.2,8.91-2.2,14.11s.73,9.91,2.2,14.11c1.47,4.2,3.57,7.77,6.3,10.71,2.73,2.94,6.05,5.21,9.95,6.8,3.91,1.59,8.34,2.39,13.29,2.39s9.28-.8,13.23-2.39M217.75,677.06h57.46v-12.6h-19.91v-52.42h-37.55v12.6h21.42v39.82h-21.42v12.6ZM255.24,599.56c1.55-1.6,2.33-3.53,2.33-5.8v-3.02c0-2.27-.78-4.2-2.33-5.8-1.56-1.59-4.22-2.39-8-2.39s-6.45.8-8,2.39c-1.56,1.6-2.33,3.53-2.33,5.8v3.02c0,2.27.78,4.2,2.33,5.8,1.55,1.6,4.22,2.39,8,2.39s6.45-.8,8-2.39M196.52,672.84c5.17-3.82,7.75-9.09,7.75-15.82,0-3.19-.59-5.88-1.76-8.06-1.18-2.18-2.75-3.99-4.73-5.42-1.98-1.43-4.24-2.54-6.8-3.34-2.56-.8-5.23-1.4-8-1.83l-10.33-1.64c-2.69-.42-4.87-1.07-6.55-1.95-1.68-.88-2.52-2.5-2.52-4.85,0-5.12,4.11-7.69,12.35-7.69,4.7,0,8.59.78,11.66,2.33,3.07,1.56,5.52,3.34,7.37,5.35l8.44-9.32c-2.86-3.19-6.49-5.67-10.9-7.43-4.41-1.76-9.77-2.65-16.07-2.65-8.91,0-15.9,1.81-20.98,5.42-5.08,3.61-7.62,8.82-7.62,15.63,0,3.19.59,5.9,1.76,8.13,1.17,2.23,2.75,4.05,4.73,5.48,1.97,1.43,4.24,2.54,6.8,3.34,2.56.8,5.19,1.41,7.88,1.83l10.46,1.64c2.69.42,4.85,1.05,6.49,1.89,1.64.84,2.46,2.44,2.46,4.79,0,2.77-1.22,4.83-3.66,6.18-2.44,1.34-5.67,2.02-9.7,2.02-4.62,0-8.68-.8-12.16-2.39-3.49-1.6-6.57-3.86-9.26-6.81l-9.45,8.57c2.94,3.78,7.01,6.79,12.22,9.01,5.21,2.23,11.38,3.34,18.52,3.34,9.24,0,16.45-1.91,21.61-5.73M81.66,677.06h57.46v-12.6h-19.91v-52.42h-37.55v12.6h21.42v39.82h-21.42v12.6ZM119.15,599.56c1.55-1.6,2.33-3.53,2.33-5.8v-3.02c0-2.27-.78-4.2-2.33-5.8-1.56-1.59-4.22-2.39-8-2.39s-6.45.8-8,2.39c-1.56,1.6-2.33,3.53-2.33,5.8v3.02c0,2.27.78,4.2,2.33,5.8,1.55,1.6,4.22,2.39,8,2.39s6.45-.8,8-2.39M49.4,677.06l24.07-87.96h-17.26l-11.09,44.48-6.55,27.72h-.88l-6.43-27.72-10.96-44.48H2.14l24.07,87.96h23.19Z"/>
    <path class="cls-1" d="M512.24,547.39h54.82v-12.6h-22.56v-22c0-4.47,1.39-8.13,4.16-11,2.77-2.87,6.6-4.3,11.47-4.3h13.36v-15.12h-7.06c-3.28,0-6.09.51-8.44,1.52-2.35,1.02-4.35,2.35-5.99,4-1.64,1.65-2.98,3.55-4.03,5.71-1.05,2.16-1.87,4.38-2.46,6.66h-1.01v-17.89h-32.26v12.6h16.13v39.82h-16.13v12.6ZM480.93,496.89c2.56,2.79,3.84,6.56,3.84,11.3v1.14h-29.49v-.89c0-4.74,1.39-8.55,4.16-11.43,2.77-2.88,6.43-4.32,10.96-4.32s7.96,1.4,10.52,4.19M488.62,545.27c4.49-2.42,7.92-5.34,10.27-8.77l-9.2-9.15c-1.93,2.69-4.35,4.85-7.25,6.49-2.9,1.64-6.36,2.46-10.4,2.46-5.29,0-9.41-1.45-12.35-4.35-2.94-2.9-4.41-6.7-4.41-11.4v-1.64h45.62v-5.31c0-4.89-.72-9.36-2.14-13.4-1.43-4.05-3.47-7.5-6.11-10.37-2.65-2.86-5.86-5.08-9.64-6.64-3.78-1.56-8.02-2.34-12.73-2.34s-9.09.8-12.92,2.39c-3.82,1.6-7.08,3.86-9.77,6.8-2.69,2.94-4.77,6.51-6.24,10.71-1.47,4.2-2.21,8.95-2.21,14.24s.71,9.89,2.14,14.05c1.43,4.16,3.51,7.71,6.24,10.65,2.73,2.94,6.11,5.21,10.14,6.8,4.03,1.59,8.65,2.39,13.86,2.39,6.89,0,12.58-1.21,17.08-3.63M429.58,547.39v-12.6h-26.46v-39.82h26.46v-12.6h-26.46v-22.93h-15v15.75c0,2.69-.55,4.56-1.64,5.61-1.09,1.05-2.94,1.57-5.54,1.57h-12.85v12.6h18.9v34.74c0,5.22,1.47,9.48,4.41,12.76,2.94,3.28,7.52,4.93,13.73,4.93h24.45ZM342.38,547.39h16.13v-65.02h-16.13v43.58c0,1.77-.36,3.28-1.07,4.55-.72,1.26-1.68,2.34-2.9,3.22-1.22.89-2.61,1.54-4.16,1.96-1.56.42-3.13.63-4.73.63-8.15,0-12.22-4.72-12.22-14.15v-39.79h-16.13v41.96c0,7.9,1.99,13.97,5.99,18.21,3.99,4.24,9.18,6.36,15.56,6.36,5.29,0,9.43-1.28,12.41-3.84,2.98-2.56,5.19-5.61,6.62-9.14h.63v11.47ZM248.06,533.34c-2.65-1.81-3.97-4.56-3.97-8.25v-20.41c0-3.7,1.32-6.45,3.97-8.25,2.65-1.81,5.82-2.71,9.51-2.71,4.7,0,8.34,1.43,10.9,4.28,2.56,2.86,3.84,6.76,3.84,11.72v10.33c0,4.96-1.28,8.86-3.84,11.72-2.56,2.86-6.2,4.28-10.9,4.28-3.7,0-6.87-.9-9.51-2.71M227.96,572.6h16.13v-36.67h.88c1.76,3.95,4.18,7.1,7.25,9.45,3.07,2.35,7.12,3.53,12.16,3.53,3.7,0,7.08-.69,10.14-2.08,3.07-1.39,5.69-3.49,7.88-6.3,2.18-2.81,3.86-6.36,5.04-10.65,1.18-4.28,1.76-9.28,1.76-15s-.59-10.71-1.76-15c-1.18-4.28-2.86-7.83-5.04-10.65-2.19-2.81-4.81-4.92-7.88-6.3-3.07-1.39-6.45-2.08-10.14-2.08-5.04,0-9.09,1.18-12.16,3.53-3.07,2.35-5.48,5.5-7.25,9.45h-.88v-11.47h-16.13v90.23ZM162.93,547.39v-46.75c0-2.6.65-4.54,1.95-5.8,1.3-1.26,2.96-1.89,4.98-1.89s3.66.76,4.66,2.27c1.01,1.51,1.51,4.16,1.51,7.94v44.23h13.36v-46.75c0-2.6.65-4.54,1.95-5.8,1.3-1.26,2.92-1.89,4.85-1.89,2.1,0,3.67.76,4.73,2.27,1.05,1.51,1.58,4.16,1.58,7.94v44.23h13.23v-46.12c0-6.72-1.05-11.8-3.15-15.25-2.1-3.44-5.54-5.17-10.33-5.17-3.95,0-6.99,1.07-9.14,3.21-2.14,2.14-3.76,4.69-4.85,7.62h-.63c-.59-3.44-1.85-6.11-3.78-8-1.93-1.89-4.54-2.83-7.81-2.83-3.45,0-6.11,1.03-8,3.09-1.89,2.06-3.34,4.52-4.35,7.37h-.76v-8.95h-13.36v65.02h13.36ZM98.67,532.33c-2.69-2.81-4.03-6.95-4.03-12.41v-10.08c0-5.46,1.34-9.6,4.03-12.41,2.69-2.81,6.34-4.22,10.96-4.22s8.27,1.41,10.96,4.22c2.69,2.82,4.03,6.95,4.03,12.41v10.08c0,5.46-1.34,9.6-4.03,12.41-2.69,2.82-6.34,4.22-10.96,4.22s-8.28-1.41-10.96-4.22M122.86,546.51c3.95-1.6,7.29-3.86,10.02-6.8,2.73-2.94,4.83-6.51,6.3-10.71,1.47-4.2,2.21-8.9,2.21-14.11s-.74-9.91-2.21-14.11c-1.47-4.2-3.57-7.77-6.3-10.71-2.73-2.94-6.07-5.21-10.02-6.8-3.95-1.59-8.36-2.39-13.23-2.39s-9.39.8-13.29,2.39c-3.91,1.6-7.23,3.86-9.95,6.8-2.73,2.94-4.83,6.51-6.3,10.71-1.47,4.2-2.2,8.91-2.2,14.11s.73,9.91,2.2,14.11c1.47,4.2,3.57,7.77,6.3,10.71,2.73,2.94,6.05,5.21,9.95,6.8,3.91,1.59,8.34,2.39,13.29,2.39s9.28-.8,13.23-2.39M51.6,547.16c3.32-1.17,6.2-2.77,8.63-4.81,2.44-2.04,4.45-4.5,6.05-7.39,1.59-2.89,2.85-6.05,3.78-9.5l-15.12-4.28c-.59,2.02-1.26,3.91-2.02,5.67-.76,1.76-1.7,3.3-2.83,4.6-1.14,1.3-2.54,2.31-4.22,3.02-1.68.72-3.7,1.07-6.05,1.07-5.71,0-9.81-2.19-12.29-6.58-2.48-4.39-3.72-10.37-3.72-17.96v-15.18c0-7.59,1.24-13.58,3.72-17.96,2.48-4.39,6.57-6.58,12.29-6.58,2.35,0,4.37.36,6.05,1.07,1.68.71,3.09,1.72,4.22,3.02,1.13,1.3,2.08,2.84,2.83,4.6.76,1.76,1.43,3.65,2.02,5.67l15.12-4.28c-.93-3.44-2.19-6.61-3.78-9.5-1.6-2.89-3.61-5.35-6.05-7.39-2.44-2.04-5.31-3.64-8.63-4.81-3.32-1.17-7.16-1.75-11.53-1.75-11.51,0-20.02,3.97-25.52,11.91-5.5,7.94-8.25,19.13-8.25,33.58s2.75,25.75,8.25,33.65c5.5,7.9,14.01,11.85,25.52,11.85,4.37,0,8.21-.58,11.53-1.75"/>
    <path class="cls-1" d="M259.1,40.8c-3.28-4.82-7.03-9.38-11.25-13.53v-.07c-1.07-1.01-2.15-2.08-3.22-3.01-7.57-6.97-16.35-12.6-26-16.82-11.12-4.89-23.25-7.37-36.11-7.37h-103.72c-4.02,0-7.77,1.21-10.92,3.28-5.42,3.55-8.98,9.65-8.98,16.62v15.61c0,6.5-2.73,12.99-8.1,16.66-3,2.05-6.33,3.04-10.2,3.04h-6.97c-8.64,0-16.15,2.88-22.45,8.71-6.5,6.1-10.18,14.54-10.99,23.39-.07.73-.13,1.47-.13,2.21-.07.53-.07,1.07-.07,1.61v207.11c0,1,0,2.01.07,3.01v.08c.03,7.81,2.43,15.58,7.41,21.59,6.99,8.43,15.74,12.7,26.15,12.7h6.97c3.84,0,7.15.98,10.13,2.94,5.39,3.53,8.16,9.96,8.16,16.41v15.97c0,6.9,3.55,13,8.98,16.55,7.78,2.21,15.81,3.28,24.12,3.28h90.52c12.87,0,24.99-2.48,36.11-7.37,11.06-4.83,20.84-11.53,29.22-19.83,4.15-4.23,7.9-8.72,11.25-13.61,3.35-4.89,6.17-10.05,8.64-15.61,4.82-11.12,7.3-23.32,7.3-36.11v-22.9c0-10.96-8.89-19.85-19.85-19.85h-28.04c-10.92,0-19.85,8.93-19.85,19.85v25.97c0,11.91-9.74,21.65-21.65,21.65h-96.73c-11.96,0-21.65-9.69-21.65-21.65V87.71c0-6.48,2.6-13,7.9-16.72,3.05-2.14,6.51-3.18,10.39-3.18h103.45,0c3.88,0,7.34,1.05,10.39,3.19,5.3,3.72,7.9,10.25,7.9,16.73h0s0,27.71,0,27.71c0,10.96,8.89,19.85,19.85,19.85h28.04c10.96,0,19.85-8.89,19.85-19.85v-22.9c0-12.8-2.48-24.93-7.3-36.12-2.48-5.49-5.36-10.71-8.64-15.61"/>
    <path class="cls-1" d="M581.93.02h-28.09c-10.96,0-19.85,8.88-19.85,19.85v225.87c0,5.07-1.73,9.17-5.45,12.88-3.71,3.72-7.81,5.45-12.88,5.45h-10.02c-10.97,0-19.86,8.89-19.86,19.86v20.74c0,5.07-1.73,9.15-5.45,12.87-3.72,3.72-7.81,5.45-12.88,5.45h-6.96c-5.07,0-9.17-1.73-12.88-5.45-3.72-3.71-5.44-7.8-5.44-12.87v-20.74c0-10.97-8.89-19.86-19.86-19.86h-10.01c-5.08,0-9.17-1.73-12.88-5.45-3.71-3.71-5.44-7.8-5.44-12.88V19.88C393.97,8.91,385.08.02,374.11.02h-27.54c-10.97,0-19.86,8.89-19.86,19.86v239.63c0,10.97,8.89,19.87,19.86,19.87h13.76c5.06,0,9.16,1.73,12.87,5.44,3.72,3.73,5.45,7.82,5.45,12.89v13.77c0,10.97,8.89,19.85,19.86,19.85h11.89c6.48,0,12.97,2.7,16.61,8.06,2.05,3.02,3.06,6.41,3.06,10.26v21.27c0,10.97,8.89,19.85,19.86,19.85h28.07c10.96,0,19.86-8.89,19.86-19.85v-21.27c0-5.07,1.73-9.16,5.45-12.87,3.72-3.72,7.81-5.45,12.88-5.45h16.6c10.5,0,17.02-6.31,17.02-16.49v-15.69c0-5.5,1.8-11.05,5.74-14.89,3.41-3.32,7.25-4.87,12.05-4.87h14.3c10.97,0,19.86-8.89,19.86-19.86V19.87c0-10.97-8.89-19.85-19.85-19.85"/>
    <path class="cls-1" d="M880.57,135.28h28.05c10.96,0,19.85-8.89,19.85-19.85v-22.9c0-12.8-2.48-24.93-7.3-36.12-2.48-5.49-5.36-10.71-8.64-15.61-3.28-4.82-7.04-9.38-11.26-13.53v-.07c-1.07-1.01-2.15-2.08-3.22-3.01-7.57-6.97-16.35-12.6-26-16.82C860.92,2.48,848.79,0,835.93,0h-103.72c-4.02,0-7.77,1.21-10.92,3.28-5.43,3.55-8.98,9.65-8.98,16.62v15.61c0,6.5-2.73,12.99-8.1,16.66-3,2.05-6.33,3.04-10.19,3.04h-6.97c-8.64,0-16.15,2.88-22.45,8.71-6.5,6.1-10.18,14.54-10.99,23.39-.07.73-.13,1.47-.13,2.21-.07.53-.07,1.07-.07,1.61v207.11c0,1,0,2.01.07,3.01v.08c.03,7.81,2.43,15.58,7.41,21.59,6.99,8.43,15.75,12.7,26.15,12.7h6.97c3.84,0,7.15.98,10.13,2.94,5.39,3.53,8.16,9.97,8.16,16.41v15.97c0,6.9,3.55,13,8.98,16.55,7.77,2.21,15.81,3.28,24.12,3.28h90.52c12.86,0,24.99-2.48,36.11-7.37,11.06-4.83,20.84-11.53,29.22-19.83,4.15-4.23,7.9-8.72,11.26-13.6,3.35-4.89,6.16-10.05,8.64-15.61,4.82-11.12,7.3-23.32,7.3-36.11v-22.9c0-10.96-8.89-19.85-19.85-19.85h-28.05c-10.92,0-19.85,8.93-19.85,19.85v25.97c0,11.91-9.74,21.65-21.65,21.65h-96.73c-11.96,0-21.65-9.69-21.65-21.65V87.71c0-6.48,2.6-13,7.9-16.72,3.05-2.14,6.51-3.18,10.39-3.18h103.45,0c3.88,0,7.34,1.05,10.39,3.19,5.3,3.72,7.9,10.25,7.9,16.73h0s0,27.71,0,27.71c0,10.96,8.89,19.85,19.85,19.85"/>
    <path class="cls-1" d="M1057.47.02h-77.38v135.11h77.38V.02ZM1031.38,59.03l14.35,29.58h-17.36l-12.66-27.21h-5.59v27.21h-15.77V15.53h28.03c13.96,0,22.94,9.89,22.94,22.9,0,9.89-5.3,17.42-13.96,20.6M1029.37,38.53c0-5.48-3.5-8.87-9.97-8.87h-9.26v17.7h9.26c6.5,0,9.97-3.71,9.97-8.83"/>
  </g>
</svg>